<svg width="69.31mm" height="74.04mm" version="1.1" viewBox="0 0 69.31 74.04" xml:space="preserve" xmlns="http://www.w3.org/2000/svg"><g transform="translate(-40.306 -24.154)"><g transform="translate(1.666 .18181)"><path d="m103.9 57.463c0 7.6997-0.99358 17.833-6.2845 22.993-5.6171 5.4781-15.791 5.7499-24.565 5.7499-8.7238 4e-6 -18.632-0.32622-24.243-5.7499-5.3474-5.1687-6.606-15.247-6.606-22.993 0-8.0149 0.92668-16.8 6.606-22.013 5.5691-5.1117 15.808-6.7298 24.243-6.7298 8.5148 3e-6 18.983 1.5327 24.565 6.7298 5.5872 5.202 6.2845 14.072 6.2845 22.013z" fill="#01032d" stroke="#3d61bd" stroke-linecap="round" stroke-linejoin="round" stroke-width="1.1658"/><g transform="translate(-.12014 -.68002)"><path d="m56.499 59.721h15.938" fill="none" stroke="#3d61bd" stroke-linecap="round" stroke-linejoin="round" stroke-width="1.875"/><path d="m77.361 55.593h13.535" fill="none" stroke="#3d61bd" stroke-linecap="round" stroke-linejoin="round" stroke-width="1.7279"/><g fill="#01032d" stroke="#3d61bd" stroke-linecap="round" stroke-linejoin="round"><path d="m60.023 70.529c0.79801-0.12029 1.5958-0.24054 1.9106-1.3972 0.31482-1.1567 0.14697-3.35 0.41227-4.4371 0.2653-1.0871 0.96345-1.0674 1.6613-1.0478m-0.8529 0.01068h6.419m-17.986 6.8208 8.6718 0.02192" stroke-width="1.3992"/><path d="m83.203 63.52c0.72375 0.03618 1.4472 0.07235 1.726 1.2171 0.27885 1.1447 0.1135 3.3976 0.1938 4.6235 0.08029 1.2259 0.40582 1.4248 0.96903 1.5177 0.56321 0.0929 1.3641 0.07998 2.1647 0.06707m-11.032-7.4408h5.8655m5.0309 7.4408c2.6066-0.03648 5.1788-0.07248 7.754-0.10852" stroke-width="1.3992"/><path d="m87.216 45.484c-1.0977-0.07749-2.1957-0.155-2.3883 0.74301-0.19258 0.898 0.52047 2.7711 0.3875 3.6984-0.13297 0.92735-1.1121 0.90926-2.0917 0.89117m-7.1802 1.7e-5 7.8652 0.0078m3.406-5.3412 8.4972-0.02326" stroke-width="1.6896"/><path d="m60.246 45.484c1.0977-0.07749 2.1957-0.155 2.3883 0.74301 0.19258 0.898-0.52047 2.7711-0.3875 3.6984 0.13297 0.92735 1.1121 0.90926 2.0917 0.89117m4.2039 1.7e-5s-4.8889 0.0078-4.8889 0.0078m-3.406-5.3412-8.4972-0.02326" stroke-width="1.6896"/></g><g fill="#7da2ff"><circle cx="83.516" cy="37.488" r="3.4104"/><circle cx="97.713" cy="45.833" r="3.4104"/><circle cx="93.165" cy="57.919" r="3.4104"/><circle cx="97.713" cy="69.809" r="3.4104"/><circle cx="83.516" cy="77.922" r="3.4104"/><circle cx="62.925" cy="77.922" r="3.4104"/><circle cx="49.451" cy="69.809" r="3.4104"/><circle cx="54.618" cy="57.821" r="3.4104"/><circle cx="49.451" cy="45.833" r="3.4104"/><circle cx="62.925" cy="37.488" r="3.4104"/></g><path d="m80.659 54.678-0.8929-2.0834h-7.7385l4.1669-26.341-11.236 33.037h7.292l-3.646 30.879z" fill="#fff" stroke="#000" stroke-linejoin="round" stroke-width=".381"/></g></g><text x="48.095901" y="97.211151" fill="#01032d" font-size="8.4667px" stroke="#3d61bd" stroke-linecap="round" stroke-linejoin="round" stroke-width=".18" xml:space="preserve"><tspan x="48.095901" y="97.211151" fill="#01032d" font-family="Rockwell" font-size="8.4667px" font-weight="bold" stroke="none" stroke-width=".18">Draelos Lab</tspan></text></g></svg>
